<svg width="40" height="24" xmlns="http://www.w3.org/2000/svg" fill="none">
 <mask id="mask0" mask-type="alpha" maskUnits="userSpaceOnUse" x="5" y="9" width="14" height="7">
  <path fill-rule="evenodd" clip-rule="evenodd" d="m12,16c-0.228,0 -0.455,-0.077 -0.64,-0.232l-6,-5c-0.424,-0.353 -0.482,-0.98402 -0.128,-1.40802c0.353,-0.424 0.983,-0.481 1.408,-0.128l5.371,4.47602l5.362,-4.31502c0.43,-0.346 1.06,-0.278 1.406,0.152c0.346,0.43 0.278,1.05902 -0.152,1.40602l-6,4.828c-0.183,0.147 -0.405,0.221 -0.627,0.221z" fill="white" id="svg_1"/>
 </mask>

 <g>
  <title>Layer 1</title>
  <path fill-rule="evenodd" clip-rule="evenodd" d="m12,16c-0.228,0 -0.455,-0.077 -0.64,-0.232l-6,-5c-0.424,-0.353 -0.482,-0.98402 -0.128,-1.40802c0.353,-0.424 0.983,-0.481 1.408,-0.128l5.371,4.47602l5.362,-4.31502c0.43,-0.346 1.06,-0.278 1.406,0.152c0.346,0.43 0.278,1.05902 -0.152,1.40602l-6,4.828c-0.183,0.147 -0.405,0.221 -0.627,0.221z" fill="#62799D" id="svg_2"/>
  <g mask="url(#mask0)" id="svg_3">
   <rect width="24" height="24" fill="#62799D" id="svg_4"/>
  </g>
 </g>
</svg>