<svg width="24" height="24" viewBox="0 0 24 24" fill="none" xmlns="http://www.w3.org/2000/svg">
<path fill-rule="evenodd" clip-rule="evenodd" d="M12 16C11.772 16 11.545 15.923 11.36 15.768L5.36003 10.768C4.93603 10.415 4.87803 9.78401 5.23203 9.36001C5.58503 8.93601 6.21503 8.87901 6.64003 9.23201L12.011 13.708L17.373 9.39301C17.803 9.04701 18.433 9.11501 18.779 9.54501C19.125 9.97501 19.057 10.604 18.627 10.951L12.627 15.779C12.444 15.926 12.222 16 12 16Z" fill="#0B2559"/>
<mask id="mask0" mask-type="alpha" maskUnits="userSpaceOnUse" x="5" y="9" width="14" height="7">
<path fill-rule="evenodd" clip-rule="evenodd" d="M12 16C11.772 16 11.545 15.923 11.36 15.768L5.36003 10.768C4.93603 10.415 4.87803 9.78401 5.23203 9.36001C5.58503 8.93601 6.21503 8.87901 6.64003 9.23201L12.011 13.708L17.373 9.39301C17.803 9.04701 18.433 9.11501 18.779 9.54501C19.125 9.97501 19.057 10.604 18.627 10.951L12.627 15.779C12.444 15.926 12.222 16 12 16Z" fill="white"/>
</mask>
<g mask="url(#mask0)">
<rect width="24" height="24" fill="#0B2559"/>
</g>
</svg>
