<svg width="40" height="24" xmlns="http://www.w3.org/2000/svg" fill="none">

 <mask height="20" width="20" y="2" x="2" maskUnits="userSpaceOnUse" mask-type="alpha" id="mask0">
  <path id="svg_1" fill="white" d="m11,8c0,-0.552 0.448,-1 1,-1c0.552,0 1,0.448 1,1l0,5c0,0.552 -0.448,1 -1,1c-0.552,0 -1,-0.448 -1,-1l0,-5zm0,8c0,-0.552 0.448,-1 1,-1c0.552,0 1,0.448 1,1c0,0.552 -0.448,1 -1,1c-0.552,0 -1,-0.448 -1,-1zm1,4c-4.411,0 -8,-3.589 -8,-8c0,-4.411 3.589,-8 8,-8c4.411,0 8,3.589 8,8c0,4.411 -3.589,8 -8,8zm0,-18c-5.523,0 -10,4.477 -10,10c0,5.523 4.477,10 10,10c5.523,0 10,-4.477 10,-10c0,-5.523 -4.477,-10 -10,-10z" clip-rule="evenodd" fill-rule="evenodd"/>
 </mask>
 <g>
  <title>Layer 1</title>
  <path id="svg_2" fill="#F92D01" d="m11,8c0,-0.552 0.448,-1 1,-1c0.552,0 1,0.448 1,1l0,5c0,0.552 -0.448,1 -1,1c-0.552,0 -1,-0.448 -1,-1l0,-5zm0,8c0,-0.552 0.448,-1 1,-1c0.552,0 1,0.448 1,1c0,0.552 -0.448,1 -1,1c-0.552,0 -1,-0.448 -1,-1zm1,4c-4.411,0 -8,-3.589 -8,-8c0,-4.411 3.589,-8 8,-8c4.411,0 8,3.589 8,8c0,4.411 -3.589,8 -8,8zm0,-18c-5.523,0 -10,4.477 -10,10c0,5.523 4.477,10 10,10c5.523,0 10,-4.477 10,-10c0,-5.523 -4.477,-10 -10,-10z" clip-rule="evenodd" fill-rule="evenodd"/>
  <g id="svg_3" mask="url(#mask0)">
   <rect id="svg_4" fill="#F92D01" height="24" width="24"/>
  </g>
 </g>
</svg>