<?xml version="1.0" standalone="no"?>
<!DOCTYPE svg PUBLIC "-//W3C//DTD SVG 20010904//EN"
 "http://www.w3.org/TR/2001/REC-SVG-20010904/DTD/svg10.dtd">
<svg version="1.0" xmlns="http://www.w3.org/2000/svg"
 width="150" height="150" fill="none" viewBox="0 0 533.000000 402.000000"
 preserveAspectRatio="xMidYMid meet">

<g transform="translate(0.000000,402.000000) scale(0.100000,-0.100000)"
fill="#fff" stroke="none">
<path d="M2490 3929 c-574 -50 -1112 -365 -1432 -839 -112 -167 -221 -401
-273 -592 l-16 -58 -339 0 -340 0 0 -500 0 -500 358 0 357 0 29 -83 c134 -384
404 -727 756 -960 364 -240 778 -350 1197 -317 614 47 1147 362 1485 874 74
112 155 273 198 394 l33 92 358 0 359 0 0 500 0 500 -342 2 -342 3 -27 95
c-132 459 -435 852 -859 1117 -241 150 -547 248 -854 273 -142 11 -168 11
-306 -1z m392 -73 c621 -77 1149 -453 1442 -1025 56 -110 121 -289 146 -403
l13 -58 339 0 338 0 0 -430 0 -430 -353 0 -352 0 -39 -116 c-124 -368 -385
-706 -722 -936 -100 -68 -340 -188 -449 -223 -380 -124 -794 -127 -1160 -7
-415 136 -749 394 -1005 776 -69 103 -160 296 -197 413 l-28 93 -352 0 -353 0
0 430 0 430 334 0 335 0 15 58 c110 401 267 670 544 934 139 131 262 216 447
308 156 77 279 123 420 155 188 44 436 56 637 31z"/>
<path d="M2406 3764 c-687 -107 -1221 -554 -1434 -1200 -22 -66 -42 -131 -46
-146 l-6 -28 305 0 306 0 11 33 c7 17 31 72 56 120 119 240 360 462 606 561
248 100 564 114 806 35 183 -59 352 -163 489 -300 118 -118 227 -288 271 -423
l13 -39 135 7 c74 3 211 6 304 6 l168 0 -6 28 c-20 83 -92 279 -139 376 -296
608 -917 990 -1602 985 -82 -1 -188 -8 -237 -15z m531 -44 c375 -64 694 -228
952 -490 136 -138 224 -262 312 -435 64 -128 139 -323 139 -363 0 -9 -63 -12
-264 -12 l-263 0 -52 106 c-68 141 -138 241 -241 344 -172 173 -398 292 -645
341 -104 21 -359 18 -465 -5 -360 -77 -673 -312 -838 -627 -21 -41 -46 -93
-55 -116 l-17 -43 -265 0 c-202 0 -265 3 -265 12 0 40 75 235 139 363 160 318
388 554 705 732 171 96 340 155 551 192 157 28 412 28 572 1z"/>
<path d="M2586 3621 l-29 -84 -85 6 -85 6 64 -46 c35 -25 67 -49 72 -52 4 -4
-4 -40 -18 -81 -14 -40 -25 -75 -25 -77 0 -2 29 16 64 41 35 26 67 46 70 46 4
0 30 -17 59 -38 29 -21 57 -42 64 -45 7 -5 2 22 -13 64 -13 40 -24 76 -24 80
0 4 29 29 65 55 36 26 65 49 65 50 0 2 -37 0 -83 -3 l-83 -6 -25 84 -25 84
-28 -84z"/>
<path d="M1390 3032 c0 -51 0 -51 -40 -63 -22 -7 -40 -15 -40 -19 0 -4 18 -12
40 -19 40 -12 40 -12 41 -64 0 -52 0 -52 17 -28 44 64 43 63 90 47 23 -8 42
-13 42 -10 0 3 -12 21 -26 40 l-26 34 26 34 c14 19 26 37 26 40 0 3 -19 -1
-41 -9 -23 -8 -43 -15 -44 -15 -2 0 -17 19 -34 42 l-31 42 0 -52z"/>
<path d="M3856 3042 c-16 -23 -30 -42 -31 -42 -1 0 -22 7 -45 15 -23 8 -45 15
-47 15 -3 0 10 -18 27 -40 l32 -40 -32 -40 c-17 -22 -30 -40 -27 -40 2 0 24 7
48 15 43 16 44 15 59 -6 8 -13 23 -32 32 -43 17 -20 17 -19 18 31 0 52 0 52
40 64 44 13 44 19 -3 35 -30 10 -32 15 -37 64 l-5 54 -29 -42z"/>
<path d="M2570 3073 c-163 -14 -331 -67 -474 -151 -112 -65 -293 -246 -358
-357 -212 -364 -203 -791 23 -1134 403 -611 1291 -641 1731 -57 381 506 244
1214 -302 1550 -171 105 -423 166 -620 149z m335 -263 c247 -77 435 -270 517
-530 20 -64 23 -95 22 -215 0 -125 -3 -149 -28 -225 -49 -151 -136 -279 -251
-373 -75 -60 -218 -131 -308 -152 -88 -20 -245 -24 -322 -7 l-60 13 -164 -75
c-90 -42 -170 -76 -178 -76 -16 0 -17 41 -2 216 l11 131 -51 64 c-60 74 -124
198 -147 284 -25 95 -29 246 -10 348 58 305 285 541 591 613 90 21 290 13 380
-16z"/>
<path d="M2545 2780 c-277 -60 -498 -275 -561 -548 -22 -95 -20 -248 5 -345
26 -99 86 -215 152 -292 49 -56 51 -61 45 -105 -10 -84 -19 -250 -13 -250 4 0
71 30 149 66 l143 65 70 -10 c123 -18 139 -19 224 -10 248 28 460 175 566 394
56 115 76 201 76 329 -1 151 -39 276 -122 401 -88 132 -212 226 -370 281 -61
21 -96 27 -199 30 -69 1 -143 -1 -165 -6z m590 -290 c9 -10 18 -31 18 -44 0
-23 -43 -87 -78 -116 -13 -11 -13 -16 4 -44 73 -118 79 -283 15 -413 -104
-215 -364 -305 -576 -200 l-68 33 -42 -43 c-51 -52 -86 -57 -117 -17 -12 15
-21 32 -21 39 0 7 20 37 44 66 l44 53 -33 60 c-66 122 -64 297 5 413 126 214
378 285 589 167 l51 -29 47 48 c53 52 88 60 118 27z"/>
<path d="M2653 2360 c-145 -30 -243 -147 -243 -291 0 -60 22 -153 39 -163 4
-3 101 89 216 204 l209 209 -44 20 c-56 24 -122 32 -177 21z"/>
<path d="M2761 2016 c-117 -117 -201 -208 -197 -215 4 -6 32 -18 63 -27 138
-40 293 35 354 171 30 67 32 172 4 233 l-20 43 -204 -205z"/>
<path d="M560 2141 c0 -5 10 -11 23 -13 19 -3 22 -10 25 -55 2 -38 7 -53 18
-53 10 0 14 14 14 55 0 48 2 55 20 55 11 0 20 5 20 10 0 6 -27 10 -60 10 -33
0 -60 -4 -60 -9z"/>
<path d="M700 2085 l0 -65 55 0 c62 0 75 17 18 22 -49 4 -53 32 -5 36 41 4 42
20 0 24 -49 5 -48 28 1 28 23 0 41 5 41 10 0 6 -25 10 -55 10 l-55 0 0 -65z"/>
<path d="M851 2124 c-27 -34 -26 -50 4 -79 23 -24 57 -31 89 -19 30 11 16 25
-18 19 -28 -6 -36 -3 -50 16 -24 35 -1 65 48 62 37 -2 49 10 20 21 -36 14 -73
6 -93 -20z"/>
<path d="M990 2085 c0 -51 3 -65 15 -65 9 0 15 10 15 26 0 23 3 25 33 22 24
-2 33 -8 35 -25 7 -49 22 -20 22 42 0 37 -4 65 -10 65 -5 0 -10 -11 -10 -25 0
-18 -7 -26 -24 -31 -32 -8 -46 2 -46 32 0 15 -6 24 -15 24 -12 0 -15 -14 -15
-65z"/>
<path d="M3946 2052 c-3 -6 -26 -58 -50 -116 l-45 -106 27 0 c16 0 32 8 40 20
10 16 23 20 63 20 42 0 52 -3 56 -20 4 -14 14 -20 35 -20 34 0 35 -7 -21 130
-36 88 -42 95 -69 98 -17 2 -33 -1 -36 -6z m49 -88 c8 -20 15 -40 15 -45 0
-10 -53 -12 -62 -3 -6 5 21 84 28 84 2 0 11 -16 19 -36z"/>
<path d="M4156 2037 c-44 -44 -28 -84 45 -108 45 -16 59 -27 52 -45 -7 -19
-47 -18 -85 2 -25 13 -32 14 -39 2 -14 -21 -11 -26 21 -43 38 -20 109 -19 138
1 18 12 22 24 20 52 -3 37 -8 42 -83 74 -16 7 -30 20 -30 28 0 16 43 20 81 7
16 -6 23 -3 28 9 10 26 -8 37 -68 42 -48 4 -57 1 -80 -21z"/>
<path d="M4375 2035 c-14 -13 -25 -31 -25 -40 0 -22 45 -65 68 -65 27 0 67
-34 58 -48 -10 -17 -51 -15 -86 3 -27 14 -30 14 -40 -5 -9 -16 -6 -22 19 -35
41 -21 113 -19 141 3 25 20 30 63 10 87 -7 8 -30 20 -51 27 -48 14 -67 34 -51
50 9 9 23 9 54 1 32 -9 45 -9 50 0 13 20 9 27 -18 37 -47 18 -103 12 -129 -15z"/>
<path d="M4580 1945 l0 -115 25 0 25 0 0 115 0 115 -25 0 -25 0 0 -115z"/>
<path d="M4708 2040 c-28 -21 -35 -53 -20 -78 5 -7 31 -21 58 -31 34 -13 49
-25 49 -37 0 -26 -36 -29 -76 -9 -26 14 -33 15 -40 3 -20 -31 22 -58 94 -58
59 0 90 26 85 73 -3 32 -11 38 -83 69 -16 7 -30 20 -30 28 0 16 41 19 81 5 15
-5 23 -2 28 11 10 26 -7 37 -66 42 -43 3 -58 0 -80 -18z"/>
<path d="M4880 2040 c0 -16 7 -20 35 -20 l35 0 0 -95 0 -95 30 0 30 0 0 95 0
95 35 0 c28 0 35 4 35 20 0 19 -7 20 -100 20 -93 0 -100 -1 -100 -20z"/>
<path d="M220 1860 c-52 -52 6 -136 75 -110 35 13 32 31 -5 24 -52 -11 -80 35
-44 71 11 11 25 14 45 10 30 -7 41 8 13 19 -30 12 -64 6 -84 -14z"/>
<path d="M352 1813 c3 -68 24 -100 30 -46 2 24 8 28 33 28 22 0 30 -5 35 -23
11 -47 25 -26 28 41 2 55 0 67 -13 67 -10 0 -15 -10 -15 -31 0 -28 -2 -30 -32
-27 -28 2 -34 8 -36 31 -2 16 -9 27 -18 27 -12 0 -14 -13 -12 -67z"/>
<path d="M536 1821 c-14 -32 -26 -64 -26 -70 0 -16 15 -14 30 4 17 20 59 19
82 -2 31 -28 32 -7 3 62 -36 84 -53 85 -89 6z m64 -23 c0 -4 -9 -8 -20 -8 -21
0 -24 8 -13 36 6 16 7 16 20 -2 7 -10 13 -21 13 -26z"/>
<path d="M680 1809 l0 -70 42 3 c49 4 66 28 19 28 -31 0 -31 0 -31 55 0 42 -3
55 -15 55 -12 0 -15 -15 -15 -71z"/>
<path d="M800 1809 l0 -70 42 3 c49 4 66 28 19 28 -31 0 -31 0 -31 55 0 42 -3
55 -15 55 -12 0 -15 -15 -15 -71z"/>
<path d="M912 1813 l3 -68 53 -3 c42 -2 52 0 52 12 0 12 -10 16 -34 16 -19 0
-38 5 -42 11 -8 14 14 29 44 29 34 0 26 18 -10 22 -45 4 -42 22 5 26 58 5 44
22 -18 22 l-56 0 3 -67z"/>
<path d="M1052 1813 c3 -71 21 -90 26 -28 2 19 7 35 11 35 4 0 22 -18 40 -40
18 -22 36 -38 42 -35 5 4 9 35 9 71 0 50 -3 64 -15 64 -10 0 -15 -11 -15 -35
0 -44 -8 -44 -40 0 -14 19 -33 35 -43 35 -16 0 -18 -8 -15 -67z"/>
<path d="M1242 1868 c-28 -14 -38 -51 -23 -84 23 -52 113 -52 119 -1 2 19 -1
27 -12 27 -9 0 -16 -9 -16 -20 0 -23 -38 -28 -58 -8 -30 30 3 84 45 73 29 -7
51 4 32 16 -19 12 -59 10 -87 -3z"/>
<path d="M1372 1813 l3 -68 53 0 c60 0 76 18 20 23 -30 3 -38 7 -38 23 0 15 7
19 36 19 21 0 33 4 29 10 -3 6 -19 10 -36 10 -19 0 -29 5 -29 15 0 10 11 15
35 15 19 0 35 5 35 10 0 6 -25 10 -55 10 l-56 0 3 -67z"/>
<path d="M981 1413 c91 -259 256 -514 452 -699 435 -411 1054 -574 1644 -434
255 61 527 200 737 377 216 181 416 476 515 757 l32 89 -143 -6 c-79 -4 -222
-7 -319 -7 l-177 0 -13 -32 c-27 -66 -131 -208 -212 -289 -179 -181 -383 -287
-642 -335 -134 -24 -356 -15 -490 20 -149 39 -248 82 -365 160 -164 109 -312
272 -394 434 l-26 52 -315 0 -314 0 30 -87z m579 39 c0 -4 32 -57 71 -118 391
-602 1219 -735 1788 -287 102 79 220 215 285 326 l51 87 277 0 276 0 -29 -75
c-70 -182 -155 -331 -271 -473 -340 -416 -816 -642 -1353 -642 -585 0 -1111
277 -1434 755 -100 148 -132 210 -200 383 l-21 52 280 0 c154 0 280 -4 280 -8z"/>
<path d="M3878 1353 c-51 -55 -60 -100 -32 -154 20 -39 89 -71 133 -63 55 11
118 105 95 141 -5 8 -23 23 -40 34 l-31 19 -17 -26 c-10 -14 -15 -33 -11 -42
6 -16 8 -15 20 1 11 15 17 16 34 7 25 -13 25 -13 6 -51 -21 -39 -57 -53 -101
-39 -67 22 -86 96 -38 144 15 14 30 26 35 26 5 0 6 7 3 15 -9 22 -27 18 -56
-12z"/>
<path d="M1435 1340 c-3 -5 6 -33 21 -61 l26 -52 -29 6 c-69 14 -204 30 -209
25 -3 -3 13 -43 36 -88 31 -61 44 -80 53 -71 8 8 4 25 -16 67 l-28 56 23 -5
c51 -12 208 -30 213 -25 7 7 -66 158 -77 158 -4 0 -9 -4 -13 -10z"/>
<path d="M3764 1169 c-3 -6 21 -37 57 -71 60 -56 62 -59 34 -54 -77 12 -203
18 -208 9 -3 -5 32 -47 78 -93 67 -67 87 -82 97 -72 10 10 0 25 -47 73 l-60
61 40 -5 c117 -17 183 -19 190 -7 5 9 -19 39 -72 91 -80 79 -96 89 -109 68z"/>
<path d="M1470 1114 c-41 -30 -81 -59 -89 -63 -19 -12 63 -133 84 -125 16 7
14 12 -24 62 l-25 34 25 19 c25 19 49 25 49 12 1 -18 38 -55 49 -49 8 6 5 18
-10 43 l-22 36 22 18 c31 26 35 25 65 -21 17 -26 31 -37 41 -34 16 7 16 9 -33
77 -19 26 -39 47 -45 46 -7 0 -46 -25 -87 -55z"/>
<path d="M1592 954 c-45 -42 -82 -80 -82 -85 0 -25 34 -19 65 11 30 29 34 30
43 15 6 -12 5 -34 -4 -68 -11 -42 -11 -53 1 -70 13 -18 14 -17 24 19 5 22 11
48 13 59 3 15 10 19 32 17 79 -9 102 69 40 138 -20 22 -39 40 -43 40 -3 0 -43
-34 -89 -76z m126 -6 c13 -22 13 -29 3 -42 -19 -22 -54 -20 -77 5 -19 21 -18
21 10 45 33 29 42 28 64 -8z"/>
<path d="M3585 990 c-3 -5 29 -50 72 -100 68 -78 80 -87 92 -75 17 16 24 5
-74 118 -57 65 -77 78 -90 57z"/>
<path d="M3530 915 c-10 -12 -8 -21 9 -48 12 -19 21 -39 21 -45 0 -9 -80 -62
-94 -62 -2 0 -15 18 -27 40 -22 39 -42 50 -54 31 -3 -5 22 -55 55 -110 43 -71
65 -98 75 -94 21 7 19 17 -10 63 l-25 40 41 25 c61 39 63 39 88 -5 21 -38 43
-51 56 -31 4 8 -110 211 -119 211 -2 0 -9 -7 -16 -15z"/>
<path d="M1804 851 c-41 -18 -74 -69 -74 -115 0 -65 59 -126 120 -126 60 0
120 66 120 133 0 75 -96 138 -166 108z m103 -51 c31 -28 36 -55 19 -89 -34
-66 -90 -78 -138 -31 -35 36 -33 68 10 113 31 33 78 36 109 7z"/>
<path d="M3279 767 c-76 -32 -84 -38 -77 -59 3 -8 10 -8 25 1 39 20 49 12 82
-71 39 -96 44 -103 64 -91 14 7 11 19 -18 86 -50 116 -50 111 -11 125 24 9 33
18 29 27 -7 19 -5 20 -94 -18z"/>
<path d="M2137 706 c-4 -9 6 -19 26 -27 18 -7 33 -13 34 -14 2 -1 -15 -44 -37
-95 -30 -71 -37 -96 -28 -102 22 -14 26 -10 64 82 37 91 47 100 86 79 16 -8
22 -8 29 2 11 18 8 20 -83 57 -90 37 -84 36 -91 18z"/>
<path d="M3028 664 c-53 -28 -73 -105 -43 -164 22 -43 53 -60 108 -60 42 0 54
5 83 34 28 28 34 41 34 78 0 102 -94 160 -182 112z m113 -43 c38 -38 40 -91 4
-126 -33 -33 -70 -32 -106 4 -46 46 -38 110 16 139 33 18 55 14 86 -17z"/>
<path d="M1995 639 c-8 -12 -9 -12 32 -33 21 -11 34 -12 38 -5 4 6 5 12 4 13
-22 16 -55 36 -61 36 -4 0 -10 -5 -13 -11z"/>
<path d="M2370 628 c-37 -20 -70 -75 -70 -120 0 -83 102 -143 178 -104 75 39
84 166 16 211 -33 21 -95 28 -124 13z m107 -50 c30 -28 31 -85 2 -122 -42 -53
-139 -21 -139 46 0 33 23 84 42 91 31 13 73 6 95 -15z"/>
<path d="M2878 548 l-3 -82 -64 77 c-35 42 -70 77 -77 77 -11 0 -14 -25 -14
-121 0 -107 2 -120 17 -117 14 3 16 16 14 88 l-1 85 35 -40 c20 -22 50 -59 68
-82 17 -23 40 -43 50 -43 16 0 17 10 15 117 -3 102 -5 118 -20 121 -15 3 -18
-8 -20 -80z"/>
<path d="M2590 486 c0 -14 29 -26 63 -26 25 0 21 27 -5 34 -37 10 -58 7 -58
-8z"/>
</g>
</svg>
