<?xml version="1.0" standalone="no"?>
<!DOCTYPE svg PUBLIC "-//W3C//DTD SVG 20010904//EN"
 "http://www.w3.org/TR/2001/REC-SVG-20010904/DTD/svg10.dtd">
<svg version="1.0" xmlns="http://www.w3.org/2000/svg"
 width="512.000000pt" height="512.000000pt" viewBox="0 0 512.000000 512.000000"
 preserveAspectRatio="xMidYMid meet">

<g transform="translate(0.000000,512.000000) scale(0.100000,-0.100000)"
fill="#000000" stroke="none">
<path d="M3477 5066 c-3 -8 -3 -60 0 -115 3 -56 2 -112 -1 -125 l-6 -25 -83
31 c-112 41 -318 93 -457 115 -165 26 -579 26 -735 0 -372 -62 -682 -180 -978
-370 l-87 -57 -233 -2 -232 -3 -5 -220 -5 -220 -68 -89 c-404 -531 -574 -1237
-458 -1903 120 -684 529 -1296 1117 -1668 113 -72 340 -183 469 -231 124 -45
325 -97 470 -121 158 -26 593 -26 750 0 144 24 319 68 447 113 128 45 374 164
492 239 614 389 1031 1037 1131 1757 77 561 -55 1184 -349 1638 -47 73 -55 93
-33 85 35 -13 37 4 35 316 l-3 304 -277 3 -278 2 -2 278 -3 277 -306 3 c-261
2 -308 0 -312 -12z m415 -148 l-102 -103 -102 103 -103 102 205 0 205 0 -103
-102z m148 -145 l0 -208 -105 105 -105 105 102 102 c57 57 104 103 105 103 2
0 3 -93 3 -207z m-395 97 l100 -100 -100 -100 c-55 -55 -103 -100 -107 -100
-4 0 -7 90 -7 200 0 110 3 200 7 200 4 0 52 -45 107 -100z m-690 11 c153 -27
315 -70 430 -112 l90 -34 1 -107 0 -108 -1115 0 c-1005 1 -1114 2 -1096 16 47
36 229 132 342 181 147 63 313 115 477 148 188 38 263 44 516 40 186 -2 260
-7 355 -24z m1035 -358 c0 -2 -93 -3 -207 -3 l-208 0 105 105 105 105 102
-102 c57 -57 103 -104 103 -105z m-2910 -168 c-58 -58 -105 -105 -105 -105 0
0 -47 47 -105 105 l-105 105 210 0 210 0 -105 -105z m560 0 c-58 -58 -105
-105 -105 -105 0 0 -47 47 -105 105 l-105 105 210 0 210 0 -105 -105z m560 0
c-58 -58 -105 -105 -105 -105 0 0 -47 47 -105 105 l-105 105 210 0 210 0 -105
-105z m560 0 c-58 -58 -105 -105 -105 -105 0 0 -47 47 -105 105 l-105 105 210
0 210 0 -105 -105z m570 0 c-58 -58 -105 -105 -105 -105 0 0 -47 47 -105 105
l-105 105 210 0 210 0 -105 -105z m560 0 c-58 -58 -105 -105 -105 -105 0 0
-47 47 -105 105 l-105 105 210 0 210 0 -105 -105z m570 0 c-58 -58 -105 -105
-105 -105 0 0 -47 47 -105 105 l-105 105 210 0 210 0 -105 -105z m-3530 -150
c0 0 -47 -47 -105 -105 l-105 -105 0 210 0 210 105 -105 c58 -58 105 -105 105
-105z m290 3 l0 -203 -102 102 -103 103 100 100 c55 55 101 100 102 100 2 0 3
-91 3 -202z m173 -100 c-54 -54 -101 -98 -105 -98 -5 0 -8 91 -8 202 l0 203
105 -105 105 -105 -97 -97z m387 100 l0 -203 -102 102 -103 103 100 100 c55
55 101 100 102 100 2 0 3 -91 3 -202z m172 -100 l-102 -103 0 205 0 205 102
-103 103 -102 -103 -102z m398 95 l0 -208 -105 105 -105 105 102 102 c57 57
104 103 105 103 2 0 3 -93 3 -207z m162 -95 l-102 -103 0 205 0 205 102 -103
103 -102 -103 -102z m398 95 l0 -208 -105 105 -105 105 102 102 c57 57 104
103 105 103 2 0 3 -93 3 -207z m270 2 c0 0 -47 -47 -105 -105 l-105 -105 0
210 0 210 105 -105 c58 -58 105 -105 105 -105z m290 3 l0 -203 -102 102 -103
103 100 100 c55 55 101 100 102 100 2 0 3 -91 3 -202z m172 -100 l-102 -103 0
205 0 205 102 -103 103 -102 -103 -102z m398 95 l0 -208 -105 105 -105 105
102 102 c57 57 104 103 105 103 2 0 3 -93 3 -207z m270 2 c0 0 -47 -47 -105
-105 l-105 -105 0 210 0 210 105 -105 c58 -58 105 -105 105 -105z m290 3 l0
-203 -102 102 -103 103 100 100 c55 55 101 100 102 100 2 0 3 -91 3 -202z
m-3525 -148 l100 -100 -205 0 -205 0 100 100 c55 55 102 100 105 100 3 0 50
-45 105 -100z m560 0 l100 -100 -205 0 -205 0 100 100 c55 55 102 100 105 100
3 0 50 -45 105 -100z m570 0 l100 -100 -205 0 -205 0 100 100 c55 55 102 100
105 100 3 0 50 -45 105 -100z m560 0 l100 -100 -205 0 -205 0 100 100 c55 55
102 100 105 100 3 0 50 -45 105 -100z m560 0 l100 -100 -205 0 -205 0 100 100
c55 55 102 100 105 100 3 0 50 -45 105 -100z m570 0 l100 -100 -205 0 -205 0
100 100 c55 55 102 100 105 100 3 0 50 -45 105 -100z m560 0 l100 -100 -205 0
-205 0 100 100 c55 55 102 100 105 100 3 0 50 -45 105 -100z m-3782 -161 c7 0
62 -1 122 -2 l110 -2 5 -70 5 -70 138 -3 137 -3 0 -274 0 -275 -271 0 c-257 0
-273 -1 -309 -21 -20 -11 -45 -35 -56 -52 -18 -31 -19 -64 -19 -932 0 -882 0
-901 20 -934 11 -18 36 -42 55 -52 32 -18 64 -19 438 -19 319 0 403 -3 399
-12 -2 -7 -21 -61 -42 -120 -34 -98 -40 -108 -62 -108 -15 0 -39 -14 -60 -35
-31 -31 -35 -40 -31 -80 l3 -45 -192 0 -193 0 -66 69 c-343 361 -563 829 -635
1351 -20 141 -17 478 5 625 56 373 184 706 394 1020 l87 130 3 -42 c2 -24 8
-43 15 -44z m2804 -1419 c1 -778 -1 -1436 -4 -1463 l-5 -47 -82 0 c-50 0 -87
-5 -94 -12 -7 -7 -12 -43 -12 -90 l0 -78 -363 0 -362 0 3 44 c3 37 -1 49 -25
76 -16 18 -43 35 -62 39 -33 6 -36 10 -68 106 -18 54 -35 107 -39 117 -5 17
14 18 398 18 384 0 404 1 436 20 18 11 41 34 52 52 20 32 20 49 18 945 l-3
911 -25 27 c-38 41 -80 55 -169 55 l-80 0 -3 46 c-3 52 -6 54 -88 84 -45 16
-58 26 -67 51 -11 27 -8 38 20 95 l31 64 -75 76 -76 76 -62 -32 c-55 -27 -66
-30 -96 -20 -29 10 -36 19 -56 78 l-24 67 -99 3 c-57 2 -103 -2 -110 -8 -7 -5
-21 -37 -31 -70 -16 -53 -23 -63 -52 -75 -32 -14 -37 -13 -87 15 -29 17 -59
30 -67 30 -19 0 -149 -131 -149 -150 0 -9 13 -41 29 -71 26 -50 28 -56 15 -86
-11 -26 -24 -35 -79 -53 l-65 -22 0 -49 0 -49 -275 0 -275 0 0 275 0 274 138
3 137 3 3 72 3 72 972 -2 972 -2 2 -1415z m1057 1405 c31 -32 132 -205 197
-340 219 -453 288 -964 198 -1468 -76 -427 -293 -871 -575 -1177 l-59 -63 -5
64 -5 64 -92 3 -93 3 0 1464 0 1465 209 0 c175 0 212 -3 225 -15z m-3064 -35
l0 -40 -250 0 -250 0 0 40 0 40 250 0 250 0 0 -40z m2422 -62 l-102 -103 -102
103 -103 102 205 0 205 0 -103 -102z m-247 -248 c-55 -55 -103 -100 -107 -100
-5 0 -8 93 -8 207 l0 208 107 -107 108 -108 -100 -100z m395 103 l0 -208 -105
105 -105 105 102 102 c57 57 104 103 105 103 2 0 3 -93 3 -207z m-1567 24 c18
-55 22 -59 74 -82 l54 -25 61 31 61 31 46 -46 46 -47 -27 -49 c-33 -60 -34
-74 -8 -133 19 -42 25 -47 85 -67 60 -20 65 -24 65 -51 l0 -29 -119 0 -119 0
-11 46 c-37 148 -148 237 -291 236 -79 0 -137 -22 -195 -73 -42 -37 -95 -138
-95 -181 l0 -28 -120 0 -120 0 0 28 c0 25 5 30 54 45 61 20 66 24 90 89 17 46
17 47 -8 97 -15 28 -26 56 -26 64 0 7 18 31 40 52 l40 39 55 -27 c66 -32 77
-32 134 -4 41 20 47 28 65 85 l20 63 65 -3 64 -3 20 -58z m1517 -274 c0 -2
-93 -3 -207 -3 l-208 0 105 105 105 105 102 -102 c57 -57 103 -104 103 -105z
m-1534 22 c86 -26 151 -96 167 -182 l7 -33 -235 0 -235 0 0 23 c1 56 61 142
125 175 63 33 105 37 171 17z m1439 -185 c-55 -55 -104 -100 -110 -100 -6 0
-55 45 -110 100 l-100 100 210 0 210 0 -100 -100z m-250 -50 l100 -100 -100
-100 c-55 -55 -103 -100 -107 -100 -5 0 -8 90 -8 200 0 110 3 200 8 200 4 0
52 -45 107 -100z m395 -100 c0 -110 -3 -200 -8 -200 -4 0 -52 45 -107 100
l-100 100 100 100 c55 55 103 100 107 100 5 0 8 -90 8 -200z m-2852 -2 l-3
-63 -225 -3 c-164 -2 -226 -6 -232 -15 -4 -6 -8 -298 -8 -647 0 -482 3 -639
12 -648 17 -17 2329 -17 2346 0 9 9 12 166 12 644 0 348 -3 639 -6 648 -6 14
-96 16 -920 16 l-914 0 0 65 0 65 955 0 956 0 24 -25 25 -24 0 -766 0 -765
-1307 2 -1308 3 0 763 0 764 28 24 28 24 270 0 270 0 -3 -62z m2707 -148 l100
-100 -210 0 -210 0 100 100 c55 55 104 100 110 100 6 0 55 -45 110 -100z
m-2705 -225 l0 -244 -37 -10 c-21 -5 -89 -22 -150 -36 -101 -24 -113 -29 -113
-48 -1 -45 114 -509 127 -514 16 -6 499 107 519 122 12 8 4 51 -47 265 -33
140 -64 259 -69 264 -4 4 -40 1 -78 -8 -39 -9 -76 -16 -81 -16 -8 0 -11 77
-11 235 l0 235 890 0 890 0 0 -600 0 -600 -1125 0 -1125 0 0 600 0 600 205 0
205 0 0 -245z m2700 -40 c-58 -58 -105 -105 -105 -105 0 0 -47 47 -105 105
l-105 105 210 0 210 0 -105 -105z m-245 -45 l100 -100 -100 -100 c-55 -55
-103 -100 -107 -100 -5 0 -8 90 -8 200 0 110 3 200 8 200 4 0 52 -45 107 -100z
m395 -107 l0 -208 -105 105 -105 105 102 102 c57 57 104 103 105 103 2 0 3
-93 3 -207z m-145 -143 l100 -100 -205 0 -205 0 100 100 c55 55 102 100 105
100 3 0 50 -45 105 -100z m-2511 53 c13 -45 96 -406 94 -408 -7 -4 -399 -95
-412 -95 -10 0 -28 56 -64 208 -28 114 -47 210 -44 213 4 3 63 19 132 34 69
15 154 36 190 46 83 23 98 23 104 2z m2596 -226 c0 -1 -44 -46 -98 -100 l-97
-97 -100 100 -100 100 198 0 c108 0 197 -1 197 -3z m-240 -242 c0 0 -47 -47
-105 -105 l-105 -105 0 210 0 210 105 -105 c58 -58 105 -105 105 -105z m300
-2 l0 -208 -105 105 -105 105 102 102 c57 57 104 103 105 103 2 0 3 -93 3
-207z m-246 -251 c-108 -1 -199 0 -202 3 -3 3 39 51 93 105 l100 100 103 -102
102 -103 -196 -3z m98 -164 l-102 -103 -102 103 -103 102 205 0 205 0 -103
-102z m148 -145 l0 -208 -105 105 -105 105 102 102 c57 57 104 103 105 103 2
0 3 -93 3 -207z m-395 97 l100 -100 -100 -100 c-55 -55 -103 -100 -107 -100
-5 0 -8 90 -8 200 0 110 3 200 8 200 4 0 52 -45 107 -100z m-435 -90 c0 -94
-2 -103 -25 -125 l-24 -25 -1255 0 -1255 0 -28 24 c-27 23 -28 29 -31 125 l-4
101 1311 0 1311 0 0 -100z m780 -257 c0 -2 -93 -3 -207 -3 l-208 0 105 105
105 105 102 -102 c57 -57 103 -104 103 -105z m-1661 -55 c19 -57 36 -109 38
-115 4 -10 -92 -13 -461 -13 -256 0 -466 3 -466 8 0 4 16 55 37 115 l37 107
391 0 391 0 33 -102z m1711 -63 l0 -55 -255 0 -255 0 0 48 c0 27 3 52 7 55 3
4 118 7 255 7 l248 0 0 -55z m190 -175 l0 -60 -445 0 -445 0 0 60 0 60 445 0
445 0 0 -60z m-1742 28 c19 -19 15 -66 -7 -78 -13 -6 -212 -10 -576 -10 -364
0 -563 4 -576 10 -22 12 -26 59 -7 78 17 17 1149 17 1166 0z m1657 -183 c-282
-246 -631 -429 -989 -520 -217 -55 -341 -69 -596 -69 -256 -1 -381 14 -596 69
-359 92 -712 277 -989 520 l-40 35 1625 0 1625 0 -40 -35z"/>
<path d="M1635 2448 c-3 -8 -4 -132 -3 -278 l3 -265 270 0 270 0 0 275 0 275
-268 3 c-210 2 -269 0 -272 -10z m485 -268 l0 -220 -220 0 -220 0 0 213 c0
118 3 217 7 220 3 4 102 7 220 7 l213 0 0 -220z"/>
<path d="M2321 2446 c-8 -9 -11 -91 -9 -277 l3 -264 275 0 275 0 3 269 c2 209
-1 271 -10 278 -7 4 -128 8 -269 8 -205 0 -259 -3 -268 -14z m489 -266 l0
-220 -220 0 -220 0 0 220 0 220 220 0 220 0 0 -220z"/>
<path d="M1701 566 c-6 -7 -9 -21 -5 -30 6 -14 45 -16 395 -16 339 0 390 2
395 15 4 8 1 22 -6 30 -18 21 -761 23 -779 1z"/>
<path d="M2562 571 c-8 -5 -12 -17 -10 -27 3 -16 14 -19 86 -22 67 -2 83 0 88
13 12 31 -15 45 -85 45 -36 0 -72 -4 -79 -9z"/>
<path d="M2781 562 c-16 -30 8 -44 71 -40 49 3 53 5 53 28 0 23 -4 25 -57 28
-48 2 -58 0 -67 -16z"/>
<path d="M2214 415 c-13 -33 4 -45 59 -45 36 0 59 5 67 15 22 27 -5 45 -67 45
-38 0 -55 -4 -59 -15z"/>
<path d="M2402 421 c-8 -4 -12 -17 -10 -27 3 -17 13 -19 88 -19 84 0 85 0 85
25 0 24 -2 25 -75 28 -41 1 -81 -2 -88 -7z"/>
<path d="M2640 415 c-7 -8 -10 -22 -6 -30 8 -23 767 -23 786 0 10 12 10 18 0
30 -19 22 -761 23 -780 0z"/>
</g>
</svg>
